<svg xmlns="http://www.w3.org/2000/svg" xml:space="preserve" width="16" height="16">
 <defs>
  <style id="current-color-scheme" type="text/css">
   .ColorScheme-Text { color:#dfdfdf; }
  </style>
 </defs> 
    <path style="fill:currentColor" class="ColorScheme-Text" d="M4.777 0A2.78 2.78 0 0 0 2.01 2.787c0 1.54 1.24 2.789 2.767 2.79 1.528-.001 2.768-1.25 2.768-2.79S6.305 0 4.777 0m4.828.656a.79.79 0 0 0-.793.783.79.79 0 0 0 .793.784.79.79 0 0 0 .793-.784.79.79 0 0 0-.793-.783m3.592 0a.79.79 0 0 0-.797.783.79.79 0 0 0 .797.784.79.79 0 0 0 .793-.784.79.79 0 0 0-.793-.783m-3.592 2.74a.79.79 0 0 0-.793.782.79.79 0 0 0 .793.783.79.79 0 0 0 .793-.783.79.79 0 0 0-.793-.782m3.579 0a.79.79 0 0 0-.793.782.79.79 0 0 0 .793.783c.439.001.794-.35.795-.783a.786.786 0 0 0-.795-.782M.524 6.777V16H2.13v-.668h-.947V7.455h.947v-.678zm13.341 0v.678h.951v7.877h-.95V16h1.61V6.777zM5.023 8.75C3.492 8.75 2.25 10 2.25 11.545s1.242 2.796 2.773 2.795c1.53-.001 2.77-1.252 2.77-2.795S6.553 8.75 5.023 8.75m5.961 0C9.453 8.75 8.21 10 8.21 11.545s1.244 2.796 2.775 2.795 2.77-1.252 2.77-2.795-1.24-2.794-2.77-2.795"/>
</svg>
