<svg xmlns="http://www.w3.org/2000/svg" xml:space="preserve" width="16" height="16">
 <defs>
  <style id="current-color-scheme" type="text/css">
   .ColorScheme-Text { color:#2e3436; }
  </style>
 </defs>   
    <path style="fill:currentColor" class="ColorScheme-Text" d="M8 0C6.873 0 5.966.926 5.966 2.066v.985h-.51a.507.507 0 0 0-.507.509v2.113c0 .281.226.507.508.507H7.26v1.005h-.907a1.475 1.475 0 0 0-2.588 0h-.946a.74.74 0 0 0-.739.739.74.74 0 0 0 .739.738h.969c.133.22.314.395.528.52v.949a2.3 2.3 0 0 0-2.219 2.282v1.305A2.295 2.295 0 0 0 4.382 16h1.345A2.297 2.297 0 0 0 8 13.906 2.295 2.295 0 0 0 10.273 16h1.342a2.295 2.295 0 0 0 2.285-2.282v-1.305a2.297 2.297 0 0 0-2.216-2.282v-.95c.214-.124.395-.3.528-.519h.97a.74.74 0 0 0 .738-.738.74.74 0 0 0-.739-.739h-.943a1.475 1.475 0 0 0-2.588 0h-.909V6.18h1.804a.506.506 0 0 0 .507-.507V3.56a.507.507 0 0 0-.507-.51h-.51v-.984C10.035.926 9.127 0 8 0m0 1.017c.564 0 1.018.453 1.018 1.017V3.05H6.983V2.034c0-.564.453-1.017 1.017-1.017m-2.943 6.14A.74.74 0 0 1 5.8 7.9a.744.744 0 1 1-.741-.744m5.886 0a.74.74 0 0 1 .741.744.744.744 0 1 1-.741-.744m-4.62 1.505h3.353c.13.217.312.393.522.517v.955A2.29 2.29 0 0 0 8 12.222a2.295 2.295 0 0 0-2.201-2.088v-.955c.213-.124.395-.3.525-.517m-1.94 2.946h1.344c.418 0 .744.288.796.69h-2.94a.786.786 0 0 1 .8-.69m5.89 0h1.342c.421 0 .747.288.799.69H9.477a.783.783 0 0 1 .796-.69m-6.698 1.465h2.954v.645a.785.785 0 0 1-.802.805H4.382a.79.79 0 0 1-.807-.805zm5.893 0h2.955v.645a.79.79 0 0 1-.808.805h-1.342a.787.787 0 0 1-.805-.805z"/>
</svg>
