<svg xmlns="http://www.w3.org/2000/svg" xml:space="preserve" width="16" height="16">
 <defs>
  <style id="current-color-scheme" type="text/css">
   .ColorScheme-Text { color:#dfdfdf; }
  </style>
 </defs> 
    <path style="fill:currentColor" class="ColorScheme-Text" d="M2.051 5.95A1.995 1.995 0 0 0 .055 7.944 1.995 1.995 0 0 0 2.051 9.94a1.995 1.995 0 0 0 1.995-1.994A1.995 1.995 0 0 0 2.05 5.95m5.987 0a1.995 1.995 0 0 0-1.996 1.995A1.995 1.995 0 0 0 8.038 9.94a1.995 1.995 0 0 0 1.994-1.994A1.995 1.995 0 0 0 8.038 5.95m5.912 0a1.995 1.995 0 0 0-1.996 1.995A1.995 1.995 0 0 0 13.95 9.94a1.995 1.995 0 0 0 1.994-1.994A1.995 1.995 0 0 0 13.95 5.95m-5.912 6.06a1.995 1.995 0 0 0-1.996 1.994A1.995 1.995 0 0 0 8.038 16a1.995 1.995 0 0 0 1.994-1.996 1.995 1.995 0 0 0-1.994-1.994"/>
    <g transform="translate(44.976 -27.956)scale(1.15673)">
        <circle cx="-37.109" cy="25.893" r="1.725" opacity=".5" style="fill:#000;"/>
        <circle cx="-37.109" cy="36.275" r="1.725" opacity=".5" style="fill:#000;"/>
        <circle cx="-31.934" cy="25.893" r="1.725" opacity=".5" style="fill:#000;"/>
        <circle cx="-26.823" cy="25.893" r="1.725" opacity=".5" style="fill:#000;"/>
        <circle cx="-26.823" cy="36.275" r="1.725" opacity=".5" style="fill:#000;"/>
    </g>
</svg>
