<svg xmlns="http://www.w3.org/2000/svg" xml:space="preserve" width="16" height="16">
 <defs>
  <style id="current-color-scheme" type="text/css">
   .ColorScheme-Text { color:#dfdfdf; }
  </style>
 </defs>    
    <path style="fill:currentColor" class="ColorScheme-Text" d="M16 1.526V.061H0v1.465h7.266v.87A5.67 5.67 0 0 0 2.34 8.012a5.67 5.67 0 0 0 4.925 5.617v2.31h1.382v-2.3a5.67 5.67 0 0 0 5.043-5.63 5.67 5.67 0 0 0-5.043-5.63v-.854ZM3.748 8.01a4.27 4.27 0 0 1 3.518-4.198v8.392A4.264 4.264 0 0 1 3.748 8.01m8.536 0a4.27 4.27 0 0 1-3.636 4.216V3.793a4.265 4.265 0 0 1 3.636 4.217"/>
</svg>
